<svg id="Layer_1" data-name="Layer 1" xmlns="http://www.w3.org/2000/svg" viewBox="0 0 256 314.39"><defs><style>.cls-1{fill:#008255;}.cls-2{fill:#115f30;}.cls-3{fill:#007749;}.cls-4{fill:none;}.cls-5{fill:#00ae6c;}</style></defs><title>evergreen-funds-txt</title><path class="cls-1" d="M158.18,148.27v-8a8.92,8.92,0,1,0-5,0v5.92L130.79,168.6V155.31l10.63-10.62-.07-.06h0v-21.2l15.18-15.18h0V55a8.92,8.92,0,1,0-5,0v51.17l-10.21,10.21V94.11a8.91,8.91,0,1,0-5,0v48.53l-5.58,5.58v-30.1h0L121,108.3V67.36a8.92,8.92,0,1,0-5,0v43.17h.15l9.68,9.68V147l-19.07-19.07V100.78a8.92,8.92,0,1,0-5,0v29.13l0,0,24.11,24.11v64.54h5v-42.9l27.41-27.41ZM148.77,46.41a5.34,5.34,0,1,1,5.33,5.34A5.33,5.33,0,0,1,148.77,46.41ZM133.55,85.56a5.33,5.33,0,1,1,5.33,5.33A5.34,5.34,0,0,1,133.55,85.56ZM113.12,58.81a5.34,5.34,0,1,1,5.33,5.34A5.33,5.33,0,0,1,113.12,58.81ZM98.87,92.23a5.34,5.34,0,1,1,5.34,5.34A5.34,5.34,0,0,1,98.87,92.23Zm51.47,39.52a5.34,5.34,0,1,1,5.34,5.34A5.34,5.34,0,0,1,150.34,131.75Z"/><path class="cls-1" d="M118.45,55.15a3.67,3.67,0,1,0,3.67,3.66A3.66,3.66,0,0,0,118.45,55.15Z"/><path class="cls-2" d="M40.76,103.17a3.66,3.66,0,1,0,3.66,3.66A3.67,3.67,0,0,0,40.76,103.17Z"/><path class="cls-2" d="M40.76,134.19a3.67,3.67,0,1,0,3.66,3.67A3.68,3.68,0,0,0,40.76,134.19Z"/><path class="cls-1" d="M48.6,100.61a83.73,83.73,0,0,1,95.5-54.68,10,10,0,1,1,18.39,6A84.15,84.15,0,0,1,189.84,72a10,10,0,0,1,9.61,10,9.75,9.75,0,0,1-.31,2.43c.79,1.29,1.55,2.59,2.26,3.92a10.05,10.05,0,0,1,9.58-7,9.76,9.76,0,0,1,1.44.11A96.76,96.76,0,0,0,35.72,98.17a10,10,0,0,1,12.88,2.44Z"/><path class="cls-1" d="M40.76,127.83a10.18,10.18,0,0,1,3.23.54c0-.11,0-.22,0-.33a84.57,84.57,0,0,1,.86-12l-.05,0a10,10,0,0,1-12.47-3.78A97.57,97.57,0,0,0,31,128c0,2.22.08,4.42.22,6.61A10,10,0,0,1,40.76,127.83Z"/><path class="cls-2" d="M77.12,138.2a4.22,4.22,0,1,0,4.22,4.22A4.23,4.23,0,0,0,77.12,138.2Z"/><path class="cls-2" d="M104.21,88a4.22,4.22,0,1,0,4.21,4.22A4.23,4.23,0,0,0,104.21,88Z"/><path class="cls-2" d="M118.45,54.59a4.22,4.22,0,1,0,4.22,4.22A4.23,4.23,0,0,0,118.45,54.59Z"/><path class="cls-2" d="M87.7,63.51a4.22,4.22,0,1,0,4.22,4.22A4.23,4.23,0,0,0,87.7,63.51Z"/><path class="cls-2" d="M66.76,88A4.22,4.22,0,1,0,71,92.23,4.23,4.23,0,0,0,66.76,88Z"/><path class="cls-3" d="M119.87,161.87h-.17L91.05,133.22V76a8.92,8.92,0,1,0-5,.49v51.73L69.27,111.44V100.78a8.92,8.92,0,1,0-5,0v12.88h.14l5.53,5.53H56.64l-8.07-8.07A8.93,8.93,0,1,0,45,114.66l9.53,9.54H74.94l39.91,39.91V177l-30-30.05a8.92,8.92,0,1,0-3.66,3.43l13.17,13.17H69.71L48.47,142.3a8.81,8.81,0,0,0,1.2-4.44,8.92,8.92,0,1,0-4.82,7.91l22.8,22.8H99.33l15.52,15.52v6.74L95.33,210.35l3.54,3.55,16-16v20.68h5V162.06h0ZM61.43,92.23a5.34,5.34,0,1,1,5.33,5.34A5.33,5.33,0,0,1,61.43,92.23ZM40.76,112.17a5.34,5.34,0,1,1,5.33-5.34A5.34,5.34,0,0,1,40.76,112.17ZM82.37,67.73a5.34,5.34,0,1,1,5.33,5.33A5.34,5.34,0,0,1,82.37,67.73Zm-5.25,80a5.33,5.33,0,1,1,5.34-5.33A5.33,5.33,0,0,1,77.12,147.75Zm-36.36-4.56a5.34,5.34,0,1,1,5.33-5.33A5.34,5.34,0,0,1,40.76,143.19Z"/><circle class="cls-4" cx="189.42" cy="81.97" r="5.33"/><circle class="cls-4" cx="210.98" cy="91.29" r="5.33"/><circle class="cls-4" cx="205.97" cy="138.72" r="5.33"/><circle class="cls-4" cx="173.5" cy="106.48" r="5.33"/><path class="cls-2" d="M17.78,258.72a7.55,7.55,0,1,0,6.67,11.09l.23-.43-2-1.14-.24.47a5.13,5.13,0,0,1-4.65,2.83,5.3,5.3,0,0,1-5.16-4.13h12.7v-1.14A7.55,7.55,0,0,0,17.78,258.72Zm5.13,6.41H12.62a5.27,5.27,0,0,1,10.29,0Z"/><polygon class="cls-2" points="33.52 269.41 29.45 258.98 26.99 258.98 32.54 273.18 34.47 273.18 40.03 258.98 37.56 258.98 33.52 269.41"/><path class="cls-2" d="M49.24,258.72a7.55,7.55,0,1,0,6.68,11.09l.23-.43-2-1.14-.23.47a5.15,5.15,0,0,1-4.66,2.83,5.31,5.31,0,0,1-5.16-4.13H56.79v-1.14A7.56,7.56,0,0,0,49.24,258.72Zm5.13,6.41H44.09a5.26,5.26,0,0,1,10.28,0Z"/><path class="cls-2" d="M62,260.19a6.22,6.22,0,0,0-1.89,4.48v8.51h2.27v-8.51a4,4,0,0,1,4.13-4h.51v-2.28h-.49A6.19,6.19,0,0,0,62,260.19Z"/><path class="cls-2" d="M76.5,258.72a7.55,7.55,0,1,0,5.27,12.93v2.8a5.29,5.29,0,1,1-10.57-.14v-.51H69v.5a7.56,7.56,0,0,0,2.19,5.45A7.47,7.47,0,0,0,76.5,282a7.56,7.56,0,0,0,7.55-7.55v-8.18A7.56,7.56,0,0,0,76.5,258.72Zm0,12.82a5.27,5.27,0,1,1,5.27-5.27A5.29,5.29,0,0,1,76.5,271.54Z"/><path class="cls-2" d="M89.29,260.19a6.24,6.24,0,0,0-1.89,4.48v8.51h2.27v-8.51a4,4,0,0,1,4.13-4h.51v-2.28h-.49A6.21,6.21,0,0,0,89.29,260.19Z"/><path class="cls-2" d="M103.76,258.72a7.55,7.55,0,1,0,6.68,11.09l.23-.43-2-1.14-.23.47a5.15,5.15,0,0,1-4.66,2.83,5.31,5.31,0,0,1-5.16-4.13h12.71v-1.14A7.56,7.56,0,0,0,103.76,258.72Zm5.13,6.41H98.61a5.26,5.26,0,0,1,10.28,0Z"/><path class="cls-2" d="M122.2,258.72a7.55,7.55,0,1,0,6.68,11.09l.23-.43-2-1.14-.24.47a5.14,5.14,0,0,1-4.66,2.83,5.29,5.29,0,0,1-5.15-4.13h12.7v-1.14A7.56,7.56,0,0,0,122.2,258.72Zm5.14,6.41H117.05a5.27,5.27,0,0,1,10.29,0Z"/><path class="cls-2" d="M140.65,258.58a7.55,7.55,0,0,0-7.55,7.54v7.06h2.28v-7.06a5.29,5.29,0,0,1,10.57,0v7.06h2.25v-7.06A7.55,7.55,0,0,0,140.65,258.58Z"/><path class="cls-2" d="M173.78,252.72a6.3,6.3,0,0,0-6.28,5.65h-3.22v2.25h3.19v12.56h2.28V260.62h3.19v-2.25h-3.15a4,4,0,0,1,4.09-3.38h.51v-2.27h-.61Z"/><path class="cls-2" d="M189.14,266.27a5.29,5.29,0,0,1-10.58,0v-7.06h-2.27v7.06a7.55,7.55,0,1,0,15.09,0v-7.06h-2.24Z"/><path class="cls-2" d="M203.73,258.58a7.55,7.55,0,0,0-7.55,7.54v7.06h2.28v-7.06a5.29,5.29,0,0,1,10.57,0v7.06h2.25v-7.06A7.55,7.55,0,0,0,203.73,258.58Z"/><path class="cls-2" d="M227.45,260.89a7.54,7.54,0,1,0,2.27,5.38V251.73h-2.27Zm-5.28,10.65a5.27,5.27,0,1,1,5.28-5.27A5.29,5.29,0,0,1,222.17,271.54Z"/><path class="cls-2" d="M240.89,264.85c-2-.39-3.11-.7-3.11-2.5,0-1,.71-1.5,2.11-1.5a2.31,2.31,0,0,1,1.7.54,1.36,1.36,0,0,1,.33,1.08l0,.53h2.27v-.49a3.62,3.62,0,0,0-1-2.69,4.48,4.48,0,0,0-3.26-1.24c-2.59,0-4.33,1.51-4.33,3.77,0,3.83,2.71,4.38,4.68,4.78s2.81.63,2.81,2.07c0,1.17-.37,2.37-3.1,2.37a3.85,3.85,0,0,1-2.63-.9,2.07,2.07,0,0,1-.53-1.59l0-.53h-2.29V269a4.38,4.38,0,0,0,1.23,3.27,5.75,5.75,0,0,0,4.17,1.54c3.4,0,5.43-1.74,5.43-4.65C245.35,265.73,242.88,265.24,240.89,264.85Z"/><circle class="cls-4" cx="189.42" cy="81.97" r="5.33"/><circle class="cls-4" cx="173.5" cy="106.48" r="5.33"/><circle class="cls-4" cx="205.97" cy="138.72" r="5.33"/><path class="cls-4" d="M145.93,184.12l-3.44,3.44v4.63l3.23,3.23a45.21,45.21,0,0,1-.26-4.82A46.19,46.19,0,0,1,145.93,184.12Z"/><circle class="cls-4" cx="210.98" cy="91.29" r="5.33"/><path class="cls-5" d="M142.49,192.19v-4.63l3.44-3.44a44.69,44.69,0,0,1,2.45-9.54l-10.85,10.86h-.05v33.15h5V199.28l5.12,5.12a45.2,45.2,0,0,1-1.89-9Z"/><path class="cls-5" d="M206,147.63a8.92,8.92,0,1,0-6.86-3.22l-1.35,1.36a44.87,44.87,0,0,1,7.42,1.8A6.83,6.83,0,0,0,206,147.63Zm0-14.25a5.34,5.34,0,1,1-5.34,5.34A5.34,5.34,0,0,1,206,133.38Z"/><path class="cls-5" d="M191.92,138.13h0V127l21.51-21.52h.05V99.84a8.92,8.92,0,1,0-5,0v3.49l-16.55,16.55V90.53a8.91,8.91,0,1,0-5,0v45.52L176,147V115a8.92,8.92,0,1,0-5,0v34.76a44.86,44.86,0,0,1,13.35-4.08Zm13.73-46.84A5.34,5.34,0,1,1,211,96.63,5.33,5.33,0,0,1,205.65,91.29ZM184.09,82a5.33,5.33,0,1,1,5.33,5.34A5.33,5.33,0,0,1,184.09,82Zm-15.92,24.51a5.34,5.34,0,1,1,5.33,5.33A5.33,5.33,0,0,1,168.17,106.48Z"/><path class="cls-1" d="M143.61,210.25v9.45h-7.24v-8.37c-1.48.15-3,.26-4.46.34v8h-7.24v-8q-1.86-.06-3.69-.21v8.2h-7.24v-9.1a82.27,82.27,0,0,1-8.19-1.81l-6.68,6.68-5.12-5.12,4.09-4.09a84.08,84.08,0,0,1-51.15-57.08l-2.08-2.07a10,10,0,0,1-12.42-4.06A96.81,96.81,0,0,0,156.6,220.34a45.33,45.33,0,0,1-7.27-11.42C147.45,209.43,145.54,209.88,143.61,210.25Z"/><path class="cls-1" d="M224.39,128a96.72,96.72,0,0,0-5.11-31.14,10.06,10.06,0,0,1-4.68,3.74v5.23l-4.94,4.95A84.25,84.25,0,0,1,211.44,128c0,.76,0,1.51,0,2.27a10,10,0,0,1-2.45,18c-.05.22-.12.44-.17.65a46,46,0,0,1,11.48,7.17A97.08,97.08,0,0,0,224.39,128Z"/><path class="cls-1" d="M128.29,229.82a101.72,101.72,0,1,1,96.46-69.31,45,45,0,0,1,4.4,5.85,107.92,107.92,0,1,0-62.57,62.56,45,45,0,0,1-5.85-4.4A101.24,101.24,0,0,1,128.29,229.82Z"/><path class="cls-2" d="M190.82,145.24a45.36,45.36,0,1,0,45.36,45.36A45.36,45.36,0,0,0,190.82,145.24Zm0,87a41.67,41.67,0,1,1,41.67-41.66A41.71,41.71,0,0,1,190.82,232.26Z"/><path class="cls-5" d="M228.43,190.59c0-.06,0-.12,0-.18a37.78,37.78,0,0,0-12.42-28c-.9-.82-1.83-1.59-2.8-2.32a38.45,38.45,0,0,0-6.24-3.79c-1.11-.53-2.24-1-3.4-1.44s-2.34-.79-3.55-1.11a37.76,37.76,0,0,0-9.45-1.19,38.28,38.28,0,0,0-3.87.2q-1.91.19-3.75.57-.93.19-1.83.42a37.84,37.84,0,0,0-14.62,7.47c-.93.77-1.83,1.58-2.69,2.44s-1.67,1.75-2.44,2.69a37.7,37.7,0,0,0-8.66,24.07v0a.66.66,0,0,1,0,.14c0,.07,0,.13,0,.2a37.86,37.86,0,0,0,75.72,0C228.44,190.72,228.43,190.66,228.43,190.59Zm-18.77-21.77a1,1,0,0,1,1.47-.1,1,1,0,0,1,.1,1.46L202.68,180a1,1,0,0,1-1.46.1,1,1,0,0,1-.11-1.46Zm1.82,9.47a2.61,2.61,0,1,1-2.6-2.61A2.61,2.61,0,0,1,211.48,178.29Zm-8.37-10.14a2.61,2.61,0,1,1-2.61,2.61A2.61,2.61,0,0,1,203.11,168.15Zm-26.18,2.75a21.74,21.74,0,0,1,22.23-4.17,1.05,1.05,0,0,1,.6,1.34,1,1,0,0,1-1.34.6,19.58,19.58,0,0,0-20.09,3.77,1,1,0,0,1-.7.27,1,1,0,0,1-.7-1.81Zm-2.61,3a1.05,1.05,0,0,1,1.21,0,1,1,0,1,1-1.21,0Zm39.8,38.45-12.4,3.16a12.68,12.68,0,0,1-3.11.39A12.46,12.46,0,0,1,194,215l-15.83-6.21h-3.91v1a1,1,0,0,1-1,1h-7.87a1,1,0,0,1-1-1V191.53a1,1,0,0,1,1-1h4.69a22.93,22.93,0,0,1-.28-3,21.7,21.7,0,0,1,1.29-7.92c.21-.59.46-1.18.72-1.75a1,1,0,1,1,1.88.87c-.24.52-.46,1.05-.65,1.59a19.53,19.53,0,0,0-1.16,7.16,20.61,20.61,0,0,0,.31,3h1.07a1,1,0,0,1,1,1v1.41h2.31V182.66a1,1,0,0,1,1-1h8.22v-5.77a1,1,0,0,1,1-1h0l9.26,0a1,1,0,0,1,1,1V187h8.21a1,1,0,0,1,1,1v11.52a20.66,20.66,0,0,0,1.36-1.79,19.49,19.49,0,0,0,2.75-6.47,19.87,19.87,0,0,0,0-8.41,1,1,0,1,1,2-.44,21.81,21.81,0,0,1,0,9.31,21.53,21.53,0,0,1-3,7.15,22,22,0,0,1-3.1,3.66v2.27l5.55-1.27a4.53,4.53,0,0,1,2.12,8.8Z"/><rect class="cls-1" x="-0.2" y="303.17" width="256" height="3.71"/></svg>