<svg id="Layer_1" data-name="Layer 1" xmlns="http://www.w3.org/2000/svg" viewBox="0 0 680.38 680.38"><defs><style>.cls-1{fill:#00ae6c;}.cls-2{fill:#008255;}.cls-3{fill:#115f30;}.cls-4{fill:#007749;}</style></defs><title>logo</title><path class="cls-1" d="M525.72,341.72l63.39-63.39h.14V261.8a26.27,26.27,0,1,0-14.77,0v10.27l-48.76,48.76V234.35a26.27,26.27,0,1,0-14.77,0V368.46l-32.12,32.13v-94a26.27,26.27,0,1,0-14.77,0V415.36L365.45,514h-.14v97.66h14.77V554.76l45,45,10.45-10.45-55.44-55.43V520.22l50.65-50.64H491.2l.06.05,68.17-68.18a26.26,26.26,0,1,0-12.55-8.34L485.19,454.8H445.5l80.2-80.19,0,0h0Zm40.43-105.11a15.72,15.72,0,1,1,15.71,15.72A15.71,15.71,0,0,1,566.15,236.61Zm.93,124a15.72,15.72,0,1,1-15.71,15.72A15.71,15.71,0,0,1,567.08,360.61ZM455.73,281.35a15.72,15.72,0,1,1,15.71,15.72A15.71,15.71,0,0,1,455.73,281.35Zm62.61-56.48a15.72,15.72,0,1,1,15.71-15.71A15.71,15.71,0,0,1,518.34,224.87Z"/><path class="cls-2" d="M426.3,404.47V381a26.26,26.26,0,1,0-14.77,0v17.44l-65.91,65.92V425.22l31.29-31.3-.19-.18h.11V331.29l44.71-44.71h.13v-157a26.26,26.26,0,1,0-14.77,0V280.33L376.83,310.4V244.9a26.26,26.26,0,1,0-14.78,0v143l-16.43,16.44v-88.7h-.06l-28.92-28.92V166.11a26.26,26.26,0,1,0-14.77,0V293.3h.46l28.51,28.5v78.8l-56.17-56.18V264.57a26.27,26.27,0,1,0-14.77,0v85.82l-.08.08,71,71V611.63h14.78V485.25l80.73-80.74ZM398.57,104.39a15.72,15.72,0,1,1,15.72,15.71A15.72,15.72,0,0,1,398.57,104.39ZM353.73,219.71a15.71,15.71,0,1,1,15.71,15.71A15.71,15.71,0,0,1,353.73,219.71Zm-60.19-78.79a15.72,15.72,0,1,1,15.72,15.71A15.71,15.71,0,0,1,293.54,140.92Zm-42,98.46a15.72,15.72,0,1,1,15.71,15.71A15.71,15.71,0,0,1,251.57,239.38ZM403.21,355.81a15.71,15.71,0,1,1,15.71,15.71A15.71,15.71,0,0,1,403.21,355.81Z"/><path class="cls-2" d="M309.26,130.13a10.79,10.79,0,1,0,10.79,10.79A10.8,10.8,0,0,0,309.26,130.13Z"/><path class="cls-3" d="M80.35,271.6a10.79,10.79,0,1,0,10.79,10.79A10.8,10.8,0,0,0,80.35,271.6Z"/><path class="cls-3" d="M80.35,363a10.79,10.79,0,1,0,10.79,10.79A10.8,10.8,0,0,0,80.35,363Z"/><path class="cls-2" d="M103.47,264.05C137,167.61,228.82,98.2,336.53,98.2A247.13,247.13,0,0,1,384.82,103,29.52,29.52,0,1,1,439,120.5a248,248,0,0,1,80.58,59.17,29.56,29.56,0,0,1,28.32,29.49,29.22,29.22,0,0,1-.9,7.14q3.48,5.69,6.66,11.56a29.27,29.27,0,0,1,32.47-20.45,286.2,286.2,0,0,0-48.18-63.93A285,285,0,0,0,65.52,256.88a29.37,29.37,0,0,1,38,7.17Z"/><path class="cls-2" d="M80.35,344.25a29.39,29.39,0,0,1,9.52,1.6c0-.33,0-.65,0-1a247.54,247.54,0,0,1,2.53-35.3l-.14-.15A29.5,29.5,0,0,1,55.5,298.3a289,289,0,0,0-3.78,46.58q0,9.78.66,19.47A29.58,29.58,0,0,1,80.35,344.25Z"/><path class="cls-2" d="M606.3,253.12a29.58,29.58,0,0,1-13.77,11v15.39L578,294.13a246.68,246.68,0,0,1,5.26,50.75q0,3.35-.09,6.67a29.52,29.52,0,0,1-7.21,53A247.75,247.75,0,0,1,425.72,574.87l14.44,14.43-15.09,15.09-22-22q-9.71,2.73-19.73,4.66v27.83H362V590.24q-6.52.68-13.13,1v23.66H327.56V591.37q-5.46-.2-10.85-.61v24.15H295.37V588.1a244,244,0,0,1-24.12-5.33l-19.68,19.68-15.09-15.09,12.05-12.05A247.72,247.72,0,0,1,97.83,407.16l-6.11-6.11a29.09,29.09,0,0,1-11.37,2.29,29.53,29.53,0,0,1-25.23-14.26A284.85,284.85,0,0,0,537.93,546.27,285.5,285.5,0,0,0,606.3,253.12Z"/><path class="cls-3" d="M187.5,374.81a12.43,12.43,0,1,0,12.43,12.43A12.44,12.44,0,0,0,187.5,374.81Z"/><path class="cls-3" d="M267.28,227a12.43,12.43,0,1,0,12.43,12.43A12.44,12.44,0,0,0,267.28,227Z"/><path class="cls-3" d="M309.26,128.49a12.43,12.43,0,1,0,12.43,12.43A12.44,12.44,0,0,0,309.26,128.49Z"/><path class="cls-3" d="M218.67,154.75a12.43,12.43,0,1,0,12.43,12.43A12.45,12.45,0,0,0,218.67,154.75Z"/><path class="cls-3" d="M157,227a12.43,12.43,0,1,0,12.43,12.43A12.44,12.44,0,0,0,157,227Z"/><path class="cls-4" d="M313.42,444.53h-.5l-84.39-84.39V191.51A26.27,26.27,0,1,0,213.76,193V345.36L164.36,296v-31.4a26.26,26.26,0,1,0-14.77,0V302.5H150v0l16.27,16.27H127.13L103.37,295a26.26,26.26,0,1,0-10.46,10.43L121,333.55h60.06L298.65,451.15v37.94l-88.54-88.54a26.32,26.32,0,1,0-10.78,10.11l38.81,38.81H165.66l-62.57-62.58A26.3,26.3,0,1,0,92.41,397.1l67.18,67.19,0-.05h93.27L298.65,510v19.86l-57.53,57.52,10.45,10.45,47.08-47.08v60.9h14.77V445.1l0,0,0,0ZM141.26,239.38A15.72,15.72,0,1,1,157,255.09,15.72,15.72,0,0,1,141.26,239.38ZM80.35,298.1a15.72,15.72,0,1,1,15.72-15.71A15.71,15.71,0,0,1,80.35,298.1ZM203,167.18a15.72,15.72,0,1,1,15.72,15.71A15.71,15.71,0,0,1,203,167.18ZM187.5,403a15.72,15.72,0,1,1,15.71-15.71A15.71,15.71,0,0,1,187.5,403ZM80.35,389.5a15.71,15.71,0,1,1,15.72-15.71A15.71,15.71,0,0,1,80.35,389.5Z"/><path class="cls-2" d="M338.24,662.79C163,662.79,20.39,520.21,20.39,345S163,27.1,338.24,27.1,656.08,169.68,656.08,345,513.5,662.79,338.24,662.79Zm0-617.64C172.93,45.15,38.45,179.64,38.45,345S172.93,644.74,338.24,644.74,638,510.25,638,345,503.54,45.15,338.24,45.15Z"/></svg>