<svg id="Layer_1" data-name="Layer 1" xmlns="http://www.w3.org/2000/svg" viewBox="0 0 256 256"><defs><style>.cls-1{fill:#008255;}.cls-2{fill:#115f30;}.cls-3{fill:#007749;}.cls-4{fill:none;}.cls-5{fill:#00ae6c;}</style></defs><title>power-up</title><path class="cls-1" d="M158.18,148.27v-8a8.92,8.92,0,1,0-5,0v5.92L130.79,168.6V155.31l10.63-10.62-.07-.06h0v-21.2l15.18-15.18h0V55a8.92,8.92,0,1,0-5,0v51.17l-10.21,10.21V94.11a8.91,8.91,0,1,0-5,0v48.53l-5.58,5.58v-30.1h0L121,108.3V67.36a8.92,8.92,0,1,0-5,0v43.17h.15l9.68,9.68V147l-19.07-19.07V100.78a8.92,8.92,0,1,0-5,0v29.13l0,0,24.11,24.11v64.54h5v-42.9l27.41-27.41ZM148.77,46.41a5.34,5.34,0,1,1,5.33,5.34A5.33,5.33,0,0,1,148.77,46.41ZM133.55,85.56a5.33,5.33,0,1,1,5.33,5.33A5.34,5.34,0,0,1,133.55,85.56ZM113.12,58.81a5.34,5.34,0,1,1,5.33,5.34A5.33,5.33,0,0,1,113.12,58.81ZM98.87,92.23a5.34,5.34,0,1,1,5.34,5.34A5.34,5.34,0,0,1,98.87,92.23Zm51.47,39.52a5.34,5.34,0,1,1,5.34,5.34A5.34,5.34,0,0,1,150.34,131.75Z"/><path class="cls-1" d="M118.45,55.15a3.67,3.67,0,1,0,3.67,3.66A3.66,3.66,0,0,0,118.45,55.15Z"/><path class="cls-2" d="M40.76,103.17a3.66,3.66,0,1,0,3.66,3.66A3.67,3.67,0,0,0,40.76,103.17Z"/><path class="cls-2" d="M40.76,134.19a3.67,3.67,0,1,0,3.66,3.67A3.68,3.68,0,0,0,40.76,134.19Z"/><path class="cls-1" d="M48.6,100.61a83.73,83.73,0,0,1,95.5-54.68,10,10,0,1,1,18.39,6A84.15,84.15,0,0,1,189.84,72a10,10,0,0,1,9.61,10,9.75,9.75,0,0,1-.31,2.43c.79,1.29,1.55,2.59,2.26,3.92a10.05,10.05,0,0,1,9.58-7,9.76,9.76,0,0,1,1.44.11A96.76,96.76,0,0,0,35.72,98.17a10,10,0,0,1,12.88,2.44Z"/><path class="cls-1" d="M40.76,127.83a10.18,10.18,0,0,1,3.23.54c0-.11,0-.22,0-.33a84.57,84.57,0,0,1,.86-12l-.05,0a10,10,0,0,1-12.47-3.78A97.57,97.57,0,0,0,31,128c0,2.22.08,4.42.22,6.61A10,10,0,0,1,40.76,127.83Z"/><path class="cls-2" d="M77.12,138.2a4.22,4.22,0,1,0,4.22,4.22A4.23,4.23,0,0,0,77.12,138.2Z"/><path class="cls-2" d="M104.21,88a4.22,4.22,0,1,0,4.21,4.22A4.23,4.23,0,0,0,104.21,88Z"/><path class="cls-2" d="M118.45,54.59a4.22,4.22,0,1,0,4.22,4.22A4.23,4.23,0,0,0,118.45,54.59Z"/><path class="cls-2" d="M87.7,63.51a4.22,4.22,0,1,0,4.22,4.22A4.23,4.23,0,0,0,87.7,63.51Z"/><path class="cls-2" d="M66.76,88A4.22,4.22,0,1,0,71,92.23,4.23,4.23,0,0,0,66.76,88Z"/><path class="cls-3" d="M119.87,161.87h-.17L91.05,133.22V76a8.92,8.92,0,1,0-5,.49v51.73L69.27,111.44V100.78a8.92,8.92,0,1,0-5,0v12.88h.14l5.53,5.53H56.64l-8.07-8.07A8.93,8.93,0,1,0,45,114.66l9.53,9.54H74.94l39.91,39.91V177l-30-30.05a8.92,8.92,0,1,0-3.66,3.43l13.17,13.17H69.71L48.47,142.3a8.81,8.81,0,0,0,1.2-4.44,8.92,8.92,0,1,0-4.82,7.91l22.8,22.8H99.33l15.52,15.52v6.74L95.33,210.35l3.54,3.55,16-16v20.68h5V162.06h0ZM61.43,92.23a5.34,5.34,0,1,1,5.33,5.34A5.33,5.33,0,0,1,61.43,92.23ZM40.76,112.17a5.34,5.34,0,1,1,5.33-5.34A5.34,5.34,0,0,1,40.76,112.17ZM82.37,67.73a5.34,5.34,0,1,1,5.33,5.33A5.34,5.34,0,0,1,82.37,67.73Zm-5.25,80a5.33,5.33,0,1,1,5.34-5.33A5.33,5.33,0,0,1,77.12,147.75Zm-36.36-4.56a5.34,5.34,0,1,1,5.33-5.33A5.34,5.34,0,0,1,40.76,143.19Z"/><circle class="cls-4" cx="189.42" cy="81.97" r="5.33"/><circle class="cls-4" cx="210.98" cy="91.29" r="5.33"/><circle class="cls-4" cx="205.97" cy="138.72" r="5.33"/><circle class="cls-4" cx="173.5" cy="106.48" r="5.33"/><circle class="cls-4" cx="189.42" cy="81.97" r="5.33"/><circle class="cls-4" cx="173.5" cy="106.48" r="5.33"/><circle class="cls-4" cx="205.97" cy="138.72" r="5.33"/><path class="cls-4" d="M145.93,184.12l-3.44,3.44v4.63l3.23,3.23a45.21,45.21,0,0,1-.26-4.82A46.19,46.19,0,0,1,145.93,184.12Z"/><circle class="cls-4" cx="210.98" cy="91.29" r="5.33"/><path class="cls-5" d="M142.49,192.19v-4.63l3.44-3.44a44.69,44.69,0,0,1,2.45-9.54l-10.85,10.86h-.05v33.15h5V199.28l5.12,5.12a45.2,45.2,0,0,1-1.89-9Z"/><path class="cls-5" d="M206,147.63a8.92,8.92,0,1,0-6.86-3.22l-1.35,1.36a44.87,44.87,0,0,1,7.42,1.8A6.83,6.83,0,0,0,206,147.63Zm0-14.25a5.34,5.34,0,1,1-5.34,5.34A5.34,5.34,0,0,1,206,133.38Z"/><path class="cls-5" d="M191.92,138.13h0V127l21.51-21.52h.05V99.84a8.92,8.92,0,1,0-5,0v3.49l-16.55,16.55V90.53a8.91,8.91,0,1,0-5,0v45.52L176,147V115a8.92,8.92,0,1,0-5,0v34.76a44.86,44.86,0,0,1,13.35-4.08Zm13.73-46.84A5.34,5.34,0,1,1,211,96.63,5.33,5.33,0,0,1,205.65,91.29ZM184.09,82a5.33,5.33,0,1,1,5.33,5.34A5.33,5.33,0,0,1,184.09,82Zm-15.92,24.51a5.34,5.34,0,1,1,5.33,5.33A5.33,5.33,0,0,1,168.17,106.48Z"/><path class="cls-1" d="M143.61,210.25v9.45h-7.24v-8.37c-1.48.15-3,.26-4.46.34v8h-7.24v-8q-1.86-.06-3.69-.21v8.2h-7.24v-9.1a82.27,82.27,0,0,1-8.19-1.81l-6.68,6.68-5.12-5.12,4.09-4.09a84.08,84.08,0,0,1-51.15-57.08l-2.08-2.07a10,10,0,0,1-12.42-4.06A96.81,96.81,0,0,0,156.6,220.34a45.33,45.33,0,0,1-7.27-11.42C147.45,209.43,145.54,209.88,143.61,210.25Z"/><path class="cls-1" d="M224.39,128a96.72,96.72,0,0,0-5.11-31.14,10.06,10.06,0,0,1-4.68,3.74v5.23l-4.94,4.95A84.25,84.25,0,0,1,211.44,128c0,.76,0,1.51,0,2.27a10,10,0,0,1-2.45,18c-.05.22-.12.44-.17.65a46,46,0,0,1,11.48,7.17A97.08,97.08,0,0,0,224.39,128Z"/><path class="cls-1" d="M128.29,229.82a101.72,101.72,0,1,1,96.46-69.31,45,45,0,0,1,4.4,5.85,107.92,107.92,0,1,0-62.57,62.56,45,45,0,0,1-5.85-4.4A101.24,101.24,0,0,1,128.29,229.82Z"/><path class="cls-2" d="M190.82,145.24a45.36,45.36,0,1,0,45.36,45.36A45.36,45.36,0,0,0,190.82,145.24Zm0,87a41.67,41.67,0,1,1,41.67-41.66A41.71,41.71,0,0,1,190.82,232.26Z"/><path class="cls-5" d="M228.67,190.59c0-.06,0-.12,0-.18a37.86,37.86,0,0,0-75.72,0c0,.06,0,.12,0,.18s0,.13,0,.2a37.86,37.86,0,0,0,75.72,0C228.68,190.72,228.67,190.65,228.67,190.59Zm-48.2,29a8,8,0,0,1-5.91-13.39,8.32,8.32,0,0,0,.84,1.69,7.67,7.67,0,0,0,3.93,3v3a1.14,1.14,0,1,0,2.28,0v-2.6h.13a7.58,7.58,0,0,0,3.92-1.09l2.27-1.36a7.66,7.66,0,0,1,.54,2.76A8,8,0,0,1,180.47,219.57Zm23.84-25.68c-4.63,7.49-10.74,9.32-12,9.62l-7.86,4.71a5.33,5.33,0,0,1-1.13.48,3.77,3.77,0,0,1-.58.14l-.45.06a5.57,5.57,0,0,1-3.47-.81l-.27-.19a4.24,4.24,0,0,1-.52-.43,4.84,4.84,0,0,1-.75-.87,4.79,4.79,0,0,1-.47-.86c0-.09-.06-.19-.1-.28a4.84,4.84,0,0,1-.19-.65,1.91,1.91,0,0,1-.06-.33,4.9,4.9,0,0,1-.07-.67c0-.1,0-.2,0-.3a5.34,5.34,0,0,1,.11-1,5,5,0,0,1,2.31-3.37c2.59-1.49,4.34-2.57,5.54-3.41,1-.56,1.59-.89,2-1.08a21.08,21.08,0,0,1,3.19-5.06,13.37,13.37,0,0,1-4.14-1.57,16.16,16.16,0,0,1-5.28,3.49,7.59,7.59,0,0,1,1.39,3.16,1.21,1.21,0,0,1,.14.1c-1,.63-2.29,1.41-4,2.39a7,7,0,0,0-2.9,3.29l-3.36-6.73a5.69,5.69,0,0,1,.21-5.5l4.74-7.91a5.77,5.77,0,0,1,2.9-2.41l11.42-4.28,19.23,9.61h0A87.3,87.3,0,0,1,204.31,193.89Zm11.6-15.74a3.39,3.39,0,0,1-1,2.46,3.46,3.46,0,0,1-2.39,1,3.29,3.29,0,0,1-1.53-.37l-17.27-8.63a1.14,1.14,0,0,1-.38-1.74l4.57-5.71a1.15,1.15,0,0,1,1.34-.34l16,6.86a1.14,1.14,0,0,1,.69,1Z"/></svg>