<svg id="Layer_1" data-name="Layer 1" xmlns="http://www.w3.org/2000/svg" viewBox="0 0 256 256"><defs><style>.cls-1{fill:#008255;}.cls-2{fill:#115f30;}.cls-3{fill:#007749;}.cls-4{fill:none;}.cls-5{fill:#00ae6c;}</style></defs><title>solar-web</title><path class="cls-1" d="M158.18,148.27v-8a8.92,8.92,0,1,0-5,0v5.92L130.79,168.6V155.31l10.63-10.62-.07-.06h0v-21.2l15.18-15.18h0V55a8.92,8.92,0,1,0-5,0v51.17l-10.21,10.21V94.11a8.91,8.91,0,1,0-5,0v48.53l-5.58,5.58v-30.1h0L121,108.3V67.36a8.92,8.92,0,1,0-5,0v43.17h.15l9.68,9.68V147l-19.07-19.07V100.78a8.92,8.92,0,1,0-5,0v29.13l0,0,24.11,24.11v64.54h5v-42.9l27.41-27.41ZM148.77,46.41a5.34,5.34,0,1,1,5.33,5.34A5.33,5.33,0,0,1,148.77,46.41ZM133.55,85.56a5.33,5.33,0,1,1,5.33,5.33A5.34,5.34,0,0,1,133.55,85.56ZM113.12,58.81a5.34,5.34,0,1,1,5.33,5.34A5.33,5.33,0,0,1,113.12,58.81ZM98.87,92.23a5.34,5.34,0,1,1,5.34,5.34A5.34,5.34,0,0,1,98.87,92.23Zm51.47,39.52a5.34,5.34,0,1,1,5.34,5.34A5.34,5.34,0,0,1,150.34,131.75Z"/><path class="cls-1" d="M118.45,55.15a3.67,3.67,0,1,0,3.67,3.66A3.66,3.66,0,0,0,118.45,55.15Z"/><path class="cls-2" d="M40.76,103.17a3.66,3.66,0,1,0,3.66,3.66A3.67,3.67,0,0,0,40.76,103.17Z"/><path class="cls-2" d="M40.76,134.19a3.67,3.67,0,1,0,3.66,3.67A3.68,3.68,0,0,0,40.76,134.19Z"/><path class="cls-1" d="M48.6,100.61a83.73,83.73,0,0,1,95.5-54.68,10,10,0,1,1,18.39,6A84.15,84.15,0,0,1,189.84,72a10,10,0,0,1,9.61,10,9.75,9.75,0,0,1-.31,2.43c.79,1.29,1.55,2.59,2.26,3.92a10.05,10.05,0,0,1,9.58-7,9.76,9.76,0,0,1,1.44.11A96.76,96.76,0,0,0,35.72,98.17a10,10,0,0,1,12.88,2.44Z"/><path class="cls-1" d="M40.76,127.83a10.18,10.18,0,0,1,3.23.54c0-.11,0-.22,0-.33a84.57,84.57,0,0,1,.86-12l-.05,0a10,10,0,0,1-12.47-3.78A97.57,97.57,0,0,0,31,128c0,2.22.08,4.42.22,6.61A10,10,0,0,1,40.76,127.83Z"/><path class="cls-2" d="M77.12,138.2a4.22,4.22,0,1,0,4.22,4.22A4.23,4.23,0,0,0,77.12,138.2Z"/><path class="cls-2" d="M104.21,88a4.22,4.22,0,1,0,4.21,4.22A4.23,4.23,0,0,0,104.21,88Z"/><path class="cls-2" d="M118.45,54.59a4.22,4.22,0,1,0,4.22,4.22A4.23,4.23,0,0,0,118.45,54.59Z"/><path class="cls-2" d="M87.7,63.51a4.22,4.22,0,1,0,4.22,4.22A4.23,4.23,0,0,0,87.7,63.51Z"/><path class="cls-2" d="M66.76,88A4.22,4.22,0,1,0,71,92.23,4.23,4.23,0,0,0,66.76,88Z"/><path class="cls-3" d="M119.87,161.87h-.17L91.05,133.22V76a8.92,8.92,0,1,0-5,.49v51.73L69.27,111.44V100.78a8.92,8.92,0,1,0-5,0v12.88h.14l5.53,5.53H56.64l-8.07-8.07A8.93,8.93,0,1,0,45,114.66l9.53,9.54H74.94l39.91,39.91V177l-30-30.05a8.92,8.92,0,1,0-3.66,3.43l13.17,13.17H69.71L48.47,142.3a8.81,8.81,0,0,0,1.2-4.44,8.92,8.92,0,1,0-4.82,7.91l22.8,22.8H99.33l15.52,15.52v6.74L95.33,210.35l3.54,3.55,16-16v20.68h5V162.06h0ZM61.43,92.23a5.34,5.34,0,1,1,5.33,5.34A5.33,5.33,0,0,1,61.43,92.23ZM40.76,112.17a5.34,5.34,0,1,1,5.33-5.34A5.34,5.34,0,0,1,40.76,112.17ZM82.37,67.73a5.34,5.34,0,1,1,5.33,5.33A5.34,5.34,0,0,1,82.37,67.73Zm-5.25,80a5.33,5.33,0,1,1,5.34-5.33A5.33,5.33,0,0,1,77.12,147.75Zm-36.36-4.56a5.34,5.34,0,1,1,5.33-5.33A5.34,5.34,0,0,1,40.76,143.19Z"/><circle class="cls-4" cx="189.42" cy="81.97" r="5.33"/><circle class="cls-4" cx="210.98" cy="91.29" r="5.33"/><circle class="cls-4" cx="205.97" cy="138.72" r="5.33"/><circle class="cls-4" cx="173.5" cy="106.48" r="5.33"/><circle class="cls-4" cx="189.42" cy="81.97" r="5.33"/><circle class="cls-4" cx="173.5" cy="106.48" r="5.33"/><circle class="cls-4" cx="205.97" cy="138.72" r="5.33"/><path class="cls-4" d="M145.93,184.12l-3.44,3.44v4.63l3.23,3.23a45.21,45.21,0,0,1-.26-4.82A46.19,46.19,0,0,1,145.93,184.12Z"/><circle class="cls-4" cx="210.98" cy="91.29" r="5.33"/><path class="cls-5" d="M142.49,192.19v-4.63l3.44-3.44a44.69,44.69,0,0,1,2.45-9.54l-10.85,10.86h-.05v33.15h5V199.28l5.12,5.12a45.2,45.2,0,0,1-1.89-9Z"/><path class="cls-5" d="M206,147.63a8.92,8.92,0,1,0-6.86-3.22l-1.35,1.36a44.87,44.87,0,0,1,7.42,1.8A6.83,6.83,0,0,0,206,147.63Zm0-14.25a5.34,5.34,0,1,1-5.34,5.34A5.34,5.34,0,0,1,206,133.38Z"/><path class="cls-5" d="M191.92,138.13h0V127l21.51-21.52h.05V99.84a8.92,8.92,0,1,0-5,0v3.49l-16.55,16.55V90.53a8.91,8.91,0,1,0-5,0v45.52L176,147V115a8.92,8.92,0,1,0-5,0v34.76a44.86,44.86,0,0,1,13.35-4.08Zm13.73-46.84A5.34,5.34,0,1,1,211,96.63,5.33,5.33,0,0,1,205.65,91.29ZM184.09,82a5.33,5.33,0,1,1,5.33,5.34A5.33,5.33,0,0,1,184.09,82Zm-15.92,24.51a5.34,5.34,0,1,1,5.33,5.33A5.33,5.33,0,0,1,168.17,106.48Z"/><path class="cls-1" d="M143.61,210.25v9.45h-7.24v-8.37c-1.48.15-3,.26-4.46.34v8h-7.24v-8q-1.86-.06-3.69-.21v8.2h-7.24v-9.1a82.27,82.27,0,0,1-8.19-1.81l-6.68,6.68-5.12-5.12,4.09-4.09a84.08,84.08,0,0,1-51.15-57.08l-2.08-2.07a10,10,0,0,1-12.42-4.06A96.81,96.81,0,0,0,156.6,220.34a45.33,45.33,0,0,1-7.27-11.42C147.45,209.43,145.54,209.88,143.61,210.25Z"/><path class="cls-1" d="M224.39,128a96.72,96.72,0,0,0-5.11-31.14,10.06,10.06,0,0,1-4.68,3.74v5.23l-4.94,4.95A84.25,84.25,0,0,1,211.44,128c0,.76,0,1.51,0,2.27a10,10,0,0,1-2.45,18c-.05.22-.12.44-.17.65a46,46,0,0,1,11.48,7.17A97.08,97.08,0,0,0,224.39,128Z"/><path class="cls-1" d="M128.29,229.82a101.72,101.72,0,1,1,96.46-69.31,45,45,0,0,1,4.4,5.85,107.92,107.92,0,1,0-62.57,62.56,45,45,0,0,1-5.85-4.4A101.24,101.24,0,0,1,128.29,229.82Z"/><path class="cls-2" d="M190.82,145.24a45.36,45.36,0,1,0,45.36,45.36A45.36,45.36,0,0,0,190.82,145.24Zm0,87a41.67,41.67,0,1,1,41.67-41.66A41.71,41.71,0,0,1,190.82,232.26Z"/><path class="cls-5" d="M190.56,153a37.86,37.86,0,1,0,37.86,37.86A37.86,37.86,0,0,0,190.56,153Zm29.82,29-5.23,10.59H203.93l5.3-10.59ZM186,204.53h11.15l-5.23,10.59H180.72Zm-6.28,10.59H168.52l5.3-10.59H185Zm18.61-10.59h11.16l-5.23,10.59H193.06Zm.21-.84,5.3-10.59H215l-5.22,10.59Zm3-38.58-3.74,8.82-5-4.93Zm-3.05,16.56h1.21V179l6.89,2.72h1.86l-.3.61.48.19-.71.28-4.7,9.51h-9.5a12.64,12.64,0,0,1-1.09.84H203l-5.22,10.59H186.51l4.92-9.85a12.62,12.62,0,0,1-1.44.68l-4.53,9.17H174.24l4.79-9.58a13.54,13.54,0,1,1,19.47-12.44Zm-13.77-23.42,3.52,8.92h-7Zm-8.32,10.95-5.06,4.9-3.67-8.86Zm-15.36,13.21,8.93-3.52v7ZM172,190l5,5-8.8,3.82Zm34.14,28.34H168.52V216.8l36.57-.07L220.8,183.9v3.69Z"/><polygon class="cls-5" points="182.99 200.26 182.27 198 179.16 200.26 181.72 195.43 180.69 195.43 177.15 202.12 177.5 202.12 177.48 202.15 177.52 202.12 177.98 202.12 181.41 199.63 182.19 202.12 182.66 202.12 182.67 202.15 182.69 202.12 183.03 202.12 186.57 195.43 185.55 195.43 182.99 200.26"/><polygon class="cls-5" points="195.32 200.26 194.6 198 191.5 200.26 194.05 195.43 193.02 195.43 189.48 202.12 189.83 202.12 189.81 202.15 189.85 202.12 190.31 202.12 193.74 199.63 194.52 202.12 194.99 202.12 195 202.15 195.02 202.12 195.36 202.12 198.9 195.43 197.88 195.43 195.32 200.26"/><polygon class="cls-5" points="210.48 195.43 207.93 200.26 207.21 198 204.1 200.26 206.66 195.43 205.62 195.43 202.08 202.12 202.43 202.12 202.42 202.15 202.46 202.12 202.92 202.12 206.35 199.63 207.13 202.12 207.6 202.12 207.61 202.15 207.62 202.12 207.97 202.12 211.51 195.43 210.48 195.43"/><path class="cls-4" d="M188.75,181.8h-.33a.55.55,0,0,0-.31.1.51.51,0,0,0-.19.39v.33a.49.49,0,0,0,.5.49h.33a.49.49,0,0,0,.49-.49v-.33A.49.49,0,0,0,188.75,181.8Z"/><path class="cls-5" d="M187.58,173.35l-.37-.75a1,1,0,0,0-1.32-.45l-6.28,3.12h1Z"/><path class="cls-5" d="M188.53,175.27H191l-.3-1.13a1,1,0,0,0-1-.73l-.26,0-1.65.45-5,1.38Z"/><path class="cls-5" d="M180.83,179.88a1.26,1.26,0,0,0-1.27,1.27v.95h2.54v-.95a1.22,1.22,0,0,0-.37-.9A1.26,1.26,0,0,0,180.83,179.88Z"/><path class="cls-5" d="M185.49,183.52v-2.2a1.72,1.72,0,0,1,.48-1.17,1.67,1.67,0,0,1,1-.49H193V177a1,1,0,0,0-1-1H177.44a1,1,0,0,0-.77.37,1,1,0,0,0-.18.36,1.09,1.09,0,0,0,0,.26v11a1,1,0,0,0,1,1h14.61a1,1,0,0,0,1-1V185.2h-5.86A1.69,1.69,0,0,1,185.49,183.52Zm-1.8,1.92a.45.45,0,0,1-.14.33.44.44,0,0,1-.34.14h-4.76a.45.45,0,0,1-.34-.14.44.44,0,0,1-.13-.33v-2.86a.48.48,0,0,1,.13-.34.49.49,0,0,1,.34-.14h.16v-.95a2.22,2.22,0,1,1,4.44,0v.95h.16a.48.48,0,0,1,.34.14.49.49,0,0,1,.14.34Z"/><path class="cls-5" d="M193.74,180.59a.94.94,0,0,0-.35-.2.87.87,0,0,0-.32-.06h-5.89a1,1,0,0,0-1,1v2.2a1,1,0,0,0,1,1h5.89a1,1,0,0,0,.67-.26,1,1,0,0,0,.32-.73v-2.2A1,1,0,0,0,193.74,180.59Zm-4.5,2a.49.49,0,0,1-.49.49h-.33a.49.49,0,0,1-.5-.49v-.33a.51.51,0,0,1,.19-.39.55.55,0,0,1,.31-.1h.33a.49.49,0,0,1,.49.49Z"/></svg>