<svg id="Layer_1" data-name="Layer 1" xmlns="http://www.w3.org/2000/svg" viewBox="0 0 256 256"><defs><style>.cls-1{fill:#008255;}.cls-2{fill:#115f30;}.cls-3{fill:#007749;}.cls-4{fill:none;}.cls-5{fill:#00ae6c;}</style></defs><title>wellness</title><path class="cls-1" d="M158.18,148.27v-8a8.92,8.92,0,1,0-5,0v5.92L130.79,168.6V155.31l10.63-10.62-.07-.06h0v-21.2l15.18-15.18h0V55a8.92,8.92,0,1,0-5,0v51.17l-10.21,10.21V94.11a8.91,8.91,0,1,0-5,0v48.53l-5.58,5.58v-30.1h0L121,108.3V67.36a8.92,8.92,0,1,0-5,0v43.17h.15l9.68,9.68V147l-19.07-19.07V100.78a8.92,8.92,0,1,0-5,0v29.13l0,0,24.11,24.11v64.54h5v-42.9l27.41-27.41ZM148.77,46.41a5.34,5.34,0,1,1,5.33,5.34A5.33,5.33,0,0,1,148.77,46.41ZM133.55,85.56a5.33,5.33,0,1,1,5.33,5.33A5.34,5.34,0,0,1,133.55,85.56ZM113.12,58.81a5.34,5.34,0,1,1,5.33,5.34A5.33,5.33,0,0,1,113.12,58.81ZM98.87,92.23a5.34,5.34,0,1,1,5.34,5.34A5.34,5.34,0,0,1,98.87,92.23Zm51.47,39.52a5.34,5.34,0,1,1,5.34,5.34A5.34,5.34,0,0,1,150.34,131.75Z"/><path class="cls-1" d="M118.45,55.15a3.67,3.67,0,1,0,3.67,3.66A3.66,3.66,0,0,0,118.45,55.15Z"/><path class="cls-2" d="M40.76,103.17a3.66,3.66,0,1,0,3.66,3.66A3.67,3.67,0,0,0,40.76,103.17Z"/><path class="cls-2" d="M40.76,134.19a3.67,3.67,0,1,0,3.66,3.67A3.68,3.68,0,0,0,40.76,134.19Z"/><path class="cls-1" d="M48.6,100.61a83.73,83.73,0,0,1,95.5-54.68,10,10,0,1,1,18.39,6A84.15,84.15,0,0,1,189.84,72a10,10,0,0,1,9.61,10,9.75,9.75,0,0,1-.31,2.43c.79,1.29,1.55,2.59,2.26,3.92a10.05,10.05,0,0,1,9.58-7,9.76,9.76,0,0,1,1.44.11A96.76,96.76,0,0,0,35.72,98.17a10,10,0,0,1,12.88,2.44Z"/><path class="cls-1" d="M40.76,127.83a10.18,10.18,0,0,1,3.23.54c0-.11,0-.22,0-.33a84.57,84.57,0,0,1,.86-12l-.05,0a10,10,0,0,1-12.47-3.78A97.57,97.57,0,0,0,31,128c0,2.22.08,4.42.22,6.61A10,10,0,0,1,40.76,127.83Z"/><path class="cls-2" d="M77.12,138.2a4.22,4.22,0,1,0,4.22,4.22A4.23,4.23,0,0,0,77.12,138.2Z"/><path class="cls-2" d="M104.21,88a4.22,4.22,0,1,0,4.21,4.22A4.23,4.23,0,0,0,104.21,88Z"/><path class="cls-2" d="M118.45,54.59a4.22,4.22,0,1,0,4.22,4.22A4.23,4.23,0,0,0,118.45,54.59Z"/><path class="cls-2" d="M87.7,63.51a4.22,4.22,0,1,0,4.22,4.22A4.23,4.23,0,0,0,87.7,63.51Z"/><path class="cls-2" d="M66.76,88A4.22,4.22,0,1,0,71,92.23,4.23,4.23,0,0,0,66.76,88Z"/><path class="cls-3" d="M119.87,161.87h-.17L91.05,133.22V76a8.92,8.92,0,1,0-5,.49v51.73L69.27,111.44V100.78a8.92,8.92,0,1,0-5,0v12.88h.14l5.53,5.53H56.64l-8.07-8.07A8.93,8.93,0,1,0,45,114.66l9.53,9.54H74.94l39.91,39.91V177l-30-30.05a8.92,8.92,0,1,0-3.66,3.43l13.17,13.17H69.71L48.47,142.3a8.81,8.81,0,0,0,1.2-4.44,8.92,8.92,0,1,0-4.82,7.91l22.8,22.8H99.33l15.52,15.52v6.74L95.33,210.35l3.54,3.55,16-16v20.68h5V162.06h0ZM61.43,92.23a5.34,5.34,0,1,1,5.33,5.34A5.33,5.33,0,0,1,61.43,92.23ZM40.76,112.17a5.34,5.34,0,1,1,5.33-5.34A5.34,5.34,0,0,1,40.76,112.17ZM82.37,67.73a5.34,5.34,0,1,1,5.33,5.33A5.34,5.34,0,0,1,82.37,67.73Zm-5.25,80a5.33,5.33,0,1,1,5.34-5.33A5.33,5.33,0,0,1,77.12,147.75Zm-36.36-4.56a5.34,5.34,0,1,1,5.33-5.33A5.34,5.34,0,0,1,40.76,143.19Z"/><circle class="cls-4" cx="189.42" cy="81.97" r="5.33"/><circle class="cls-4" cx="210.98" cy="91.29" r="5.33"/><circle class="cls-4" cx="205.97" cy="138.72" r="5.33"/><circle class="cls-4" cx="173.5" cy="106.48" r="5.33"/><circle class="cls-4" cx="189.42" cy="81.97" r="5.33"/><circle class="cls-4" cx="173.5" cy="106.48" r="5.33"/><circle class="cls-4" cx="205.97" cy="138.72" r="5.33"/><path class="cls-4" d="M145.93,184.12l-3.44,3.44v4.63l3.23,3.23a45.21,45.21,0,0,1-.26-4.82A46.19,46.19,0,0,1,145.93,184.12Z"/><circle class="cls-4" cx="210.98" cy="91.29" r="5.33"/><path class="cls-5" d="M142.49,192.19v-4.63l3.44-3.44a44.69,44.69,0,0,1,2.45-9.54l-10.85,10.86h-.05v33.15h5V199.28l5.12,5.12a45.2,45.2,0,0,1-1.89-9Z"/><path class="cls-5" d="M206,147.63a8.92,8.92,0,1,0-6.86-3.22l-1.35,1.36a44.87,44.87,0,0,1,7.42,1.8A6.83,6.83,0,0,0,206,147.63Zm0-14.25a5.34,5.34,0,1,1-5.34,5.34A5.34,5.34,0,0,1,206,133.38Z"/><path class="cls-5" d="M191.92,138.13h0V127l21.51-21.52h.05V99.84a8.92,8.92,0,1,0-5,0v3.49l-16.55,16.55V90.53a8.91,8.91,0,1,0-5,0v45.52L176,147V115a8.92,8.92,0,1,0-5,0v34.76a44.86,44.86,0,0,1,13.35-4.08Zm13.73-46.84A5.34,5.34,0,1,1,211,96.63,5.33,5.33,0,0,1,205.65,91.29ZM184.09,82a5.33,5.33,0,1,1,5.33,5.34A5.33,5.33,0,0,1,184.09,82Zm-15.92,24.51a5.34,5.34,0,1,1,5.33,5.33A5.33,5.33,0,0,1,168.17,106.48Z"/><path class="cls-1" d="M143.61,210.25v9.45h-7.24v-8.37c-1.48.15-3,.26-4.46.34v8h-7.24v-8q-1.86-.06-3.69-.21v8.2h-7.24v-9.1a82.27,82.27,0,0,1-8.19-1.81l-6.68,6.68-5.12-5.12,4.09-4.09a84.08,84.08,0,0,1-51.15-57.08l-2.08-2.07a10,10,0,0,1-12.42-4.06A96.81,96.81,0,0,0,156.6,220.34a45.33,45.33,0,0,1-7.27-11.42C147.45,209.43,145.54,209.88,143.61,210.25Z"/><path class="cls-1" d="M224.39,128a96.72,96.72,0,0,0-5.11-31.14,10.06,10.06,0,0,1-4.68,3.74v5.23l-4.94,4.95A84.25,84.25,0,0,1,211.44,128c0,.76,0,1.51,0,2.27a10,10,0,0,1-2.45,18c-.05.22-.12.44-.17.65a46,46,0,0,1,11.48,7.17A97.08,97.08,0,0,0,224.39,128Z"/><path class="cls-1" d="M128.29,229.82a101.72,101.72,0,1,1,96.46-69.31,45,45,0,0,1,4.4,5.85,107.92,107.92,0,1,0-62.57,62.56,45,45,0,0,1-5.85-4.4A101.24,101.24,0,0,1,128.29,229.82Z"/><path class="cls-2" d="M190.82,145.24a45.36,45.36,0,1,0,45.36,45.36A45.36,45.36,0,0,0,190.82,145.24Zm0,87a41.67,41.67,0,1,1,41.67-41.66A41.71,41.71,0,0,1,190.82,232.26Z"/><path class="cls-5" d="M190.82,153a37.86,37.86,0,0,0-37.67,34.14c-.09.86-.13,1.73-.16,2.6,0,.38,0,.75,0,1.12A37.86,37.86,0,1,0,190.82,153ZM217,191.17a20.83,20.83,0,0,1-3.44,7.25,57,57,0,0,1-7.24,8.28,125.81,125.81,0,0,1-15.88,12.72s-2-1.3-4.88-3.46c-.85-.64-1.78-1.35-2.76-2.12l-.29-.23c-7.22-5.72-17-14.7-18.66-22.44-.14-.47-.26-.95-.37-1.44h6.56l4.59,8.09,3.07-6.53,3.86-1.22,1.12-4.06L188,206.18l4.27-16.89h10.12a2.76,2.76,0,1,0,0-2.61H190.23l-2.28,9L182.77,176,179.45,188l-3.6,1.14-1.41,3-2.85-5h-8.43c0-.32,0-.63,0-.95a16.34,16.34,0,0,1,8-14.2,14.81,14.81,0,0,1,14.68-.13,15.71,15.71,0,0,1,4.68,4A15.09,15.09,0,0,1,202.35,170a14.82,14.82,0,0,1,7.46,2,16,16,0,0,1,5.78,5.85A16.76,16.76,0,0,1,217,191.17Z"/></svg>